<svg preserveAspectRatio="none" overflow="visible" style="display: block;" width="378.182" height="115" viewBox="0 0 378.182 115" fill="none" xmlns="http://www.w3.org/2000/svg">
<path id="Vector 141741" d="M377.682 0.5H378.182V0H377.682V0.5ZM3.68198 0.5V0H3.18198V0.5H3.68198ZM3.32843 114.854C3.52369 115.049 3.84027 115.049 4.03553 114.854L7.21751 111.672C7.41278 111.476 7.41278 111.16 7.21751 110.964C7.02225 110.769 6.70567 110.769 6.51041 110.964L3.68198 113.793L0.853554 110.964C0.658291 110.769 0.341709 110.769 0.146447 110.964C-0.0488155 111.16 -0.0488155 111.476 0.146447 111.672L3.32843 114.854ZM377.682 12.3058H378.182V0.5H377.682H377.182V12.3058H377.682ZM377.682 0.5V0H3.68198V0.5V1H377.682V0.5ZM3.68198 0.5H3.18198V114.5H3.68198H4.18198V0.5H3.68198Z" fill="#969696"/>
</svg>
