<svg preserveAspectRatio="none" overflow="visible" style="display: block;" width="212.909" height="77.3396" viewBox="0 0 212.909 77.3396" fill="none" xmlns="http://www.w3.org/2000/svg">
<foreignObject x="0" y="0" width="212.909" height="77.3396"><div xmlns="http://www.w3.org/1999/xhtml" style="backdrop-filter:blur(15.91px);clip-path:url(#bgblur_0_0_129_clip_path);height:100%;width:100%"></div></foreignObject><g id="Union" filter="url(#filter0_d_0_129)" data-figma-bg-blur-radius="31.814">
<mask id="path-1-inside-1_0_129" fill="white">
<path d="M179.627 2.93668C192.602 2.93668 203.12 13.4548 203.12 26.4298C203.12 39.4048 192.602 49.923 179.627 49.923H123.004C121.003 49.923 120.003 49.923 119.103 50.2956C118.204 50.6681 117.497 51.3755 116.082 52.7901L113.068 55.8039C109.805 59.0669 108.174 60.6984 106.146 60.6984C104.119 60.6984 102.488 59.0669 99.2245 55.8039L96.2107 52.7901C94.7961 51.3755 94.0888 50.6681 93.1893 50.2956C92.2898 49.923 91.2895 49.923 89.2889 49.923H33.2821C20.3072 49.9228 9.78903 39.4047 9.78893 26.4298C9.78893 13.4549 20.3072 2.93688 33.2821 2.93668H179.627Z"/>
</mask>
<path d="M179.627 2.93668C192.602 2.93668 203.12 13.4548 203.12 26.4298C203.12 39.4048 192.602 49.923 179.627 49.923H123.004C121.003 49.923 120.003 49.923 119.103 50.2956C118.204 50.6681 117.497 51.3755 116.082 52.7901L113.068 55.8039C109.805 59.0669 108.174 60.6984 106.146 60.6984C104.119 60.6984 102.488 59.0669 99.2245 55.8039L96.2107 52.7901C94.7961 51.3755 94.0888 50.6681 93.1893 50.2956C92.2898 49.923 91.2895 49.923 89.2889 49.923H33.2821C20.3072 49.9228 9.78903 39.4047 9.78893 26.4298C9.78893 13.4549 20.3072 2.93688 33.2821 2.93668H179.627Z" fill="white" fill-opacity="0.2" shape-rendering="crispEdges"/>
<path d="M203.12 26.4298L204.099 26.4299V26.4298H203.12ZM33.2821 49.923L33.2821 50.9019H33.2821V49.923ZM9.78893 26.4298H8.81004V26.4299L9.78893 26.4298ZM33.2821 2.93668V1.95779H33.2821L33.2821 2.93668ZM96.2107 52.7901L95.5186 53.4823L96.2107 52.7901ZM93.1893 50.2956L93.5639 49.3912L93.1893 50.2956ZM106.146 60.6984V61.6773V60.6984ZM116.082 52.7901L115.39 52.0979L116.082 52.7901ZM119.103 50.2956L118.729 49.3912L119.103 50.2956ZM179.627 2.93668V3.91557C192.061 3.91557 202.141 13.9954 202.141 26.4298H203.12H204.099C204.099 12.9141 193.143 1.95779 179.627 1.95779V2.93668ZM203.12 26.4298L202.141 26.4298C202.141 38.8642 192.061 48.9441 179.627 48.9441V49.923V50.9019C193.142 50.9019 204.099 39.9455 204.099 26.4299L203.12 26.4298ZM179.627 49.923V48.9441H123.004V49.923V50.9019H179.627V49.923ZM116.082 52.7901L115.39 52.0979L112.376 55.1117L113.068 55.8039L113.76 56.4961L116.774 53.4823L116.082 52.7901ZM99.2245 55.8039L99.9167 55.1117L96.9029 52.0979L96.2107 52.7901L95.5186 53.4823L98.5323 56.4961L99.2245 55.8039ZM89.2889 49.923V48.9441H33.2821V49.923V50.9019H89.2889V49.923ZM33.2821 49.923L33.2821 48.9441C20.8479 48.9439 10.7679 38.8641 10.7678 26.4298L9.78893 26.4298L8.81004 26.4299C8.81014 39.9454 19.7666 50.9017 33.2821 50.9019L33.2821 49.923ZM9.78893 26.4298H10.7678C10.7678 13.9955 20.8478 3.91577 33.2821 3.91557L33.2821 2.93668L33.2821 1.95779C19.7666 1.958 8.81004 12.9143 8.81004 26.4298H9.78893ZM33.2821 2.93668V3.91557H179.627V2.93668V1.95779H33.2821V2.93668ZM96.2107 52.7901L96.9029 52.0979C95.5447 50.7398 94.6851 49.8556 93.5639 49.3912L93.1893 50.2956L92.8147 51.2C93.4924 51.4807 94.0474 52.0112 95.5186 53.4823L96.2107 52.7901ZM89.2889 49.923V50.9019C91.3694 50.9019 92.137 50.9192 92.8147 51.2L93.1893 50.2956L93.5639 49.3912C92.4427 48.9268 91.2097 48.9441 89.2889 48.9441V49.923ZM113.068 55.8039L112.376 55.1117C110.725 56.7628 109.555 57.93 108.55 58.6965C107.568 59.4458 106.86 59.7195 106.146 59.7195V60.6984V61.6773C107.46 61.6773 108.581 61.1352 109.738 60.253C110.871 59.3881 112.148 58.108 113.76 56.4961L113.068 55.8039ZM99.2245 55.8039L98.5323 56.4961C100.144 58.108 101.421 59.3881 102.555 60.253C103.711 61.1352 104.833 61.6773 106.146 61.6773V60.6984V59.7195C105.433 59.7195 104.725 59.4458 103.743 58.6965C102.738 57.93 101.568 56.7628 99.9167 55.1117L99.2245 55.8039ZM123.004 49.923V48.9441C121.083 48.9441 119.85 48.9268 118.729 49.3912L119.103 50.2956L119.478 51.2C120.156 50.9192 120.923 50.9019 123.004 50.9019V49.923ZM116.082 52.7901L116.774 53.4823C118.245 52.0112 118.8 51.4807 119.478 51.2L119.103 50.2956L118.729 49.3912C117.608 49.8556 116.748 50.7398 115.39 52.0979L116.082 52.7901Z" fill="white" fill-opacity="0.2" mask="url(#path-1-inside-1_0_129)"/>
</g>
<defs>
<filter id="filter0_d_0_129" x="0" y="0" width="212.909" height="77.3396" filterUnits="userSpaceOnUse" color-interpolation-filters="sRGB">
<feFlood flood-opacity="0" result="BackgroundImageFix"/>
<feColorMatrix in="SourceAlpha" type="matrix" values="0 0 0 0 0 0 0 0 0 0 0 0 0 0 0 0 0 0 127 0" result="hardAlpha"/>
<feOffset dy="6.85225"/>
<feGaussianBlur stdDeviation="4.89447"/>
<feComposite in2="hardAlpha" operator="out"/>
<feColorMatrix type="matrix" values="0 0 0 0 0.0980392 0 0 0 0 0.180392 0 0 0 0 0.466667 0 0 0 0.8 0"/>
<feBlend mode="normal" in2="BackgroundImageFix" result="effect1_dropShadow_0_129"/>
<feBlend mode="normal" in="SourceGraphic" in2="effect1_dropShadow_0_129" result="shape"/>
</filter>
<clipPath id="bgblur_0_0_129_clip_path" transform="translate(0 0)"><path d="M179.627 2.93668C192.602 2.93668 203.12 13.4548 203.12 26.4298C203.12 39.4048 192.602 49.923 179.627 49.923H123.004C121.003 49.923 120.003 49.923 119.103 50.2956C118.204 50.6681 117.497 51.3755 116.082 52.7901L113.068 55.8039C109.805 59.0669 108.174 60.6984 106.146 60.6984C104.119 60.6984 102.488 59.0669 99.2245 55.8039L96.2107 52.7901C94.7961 51.3755 94.0888 50.6681 93.1893 50.2956C92.2898 49.923 91.2895 49.923 89.2889 49.923H33.2821C20.3072 49.9228 9.78903 39.4047 9.78893 26.4298C9.78893 13.4549 20.3072 2.93688 33.2821 2.93668H179.627Z"/>
</clipPath></defs>
</svg>
